<?xml version="1.0" encoding="UTF-8" standalone="no"?>
<!-- Created with Inkscape (http://www.inkscape.org/) -->

<svg
   width="58.208332mm"
   height="16.933332mm"
   viewBox="0 0 58.208332 16.933332"
   version="1.1"
   id="svg1"
   xml:space="preserve"
   xmlns="http://www.w3.org/2000/svg"
   xmlns:svg="http://www.w3.org/2000/svg"><defs
     id="defs1" /><g
     id="layer1"
     transform="translate(-75.895836,-140.03334)"><rect
       width="58.208332"
       height="16.933332"
       rx="3.175"
       fill="#0f766e"
       id="rect1"
       x="75.895836"
       y="140.03334"
       style="stroke-width:0.264583" /><g
       id="g2"
       transform="translate(-5.4709906,18.491932)"><path
         d="m 105.86689,128.21486 c -0.057,-0.0463 -0.5733,-0.43443 -1.66293,-0.43443 -0.28844,0 -0.57687,0.0214 -0.86174,0.0748 -0.21009,-1.44928 -1.40655,-2.15434 -1.45997,-2.18639 l -0.29199,-0.17092 -0.19229,0.27775 c -0.24214,0.37389 -0.41662,0.78339 -0.51989,1.21782 -0.19585,0.82613 -0.0783,1.60241 0.34185,2.26473 -0.50565,0.28131 -1.321103,0.35253 -1.484903,0.35609 h -13.46374 c -0.35253,0 -0.6374,0.28487 -0.6374,0.6374 -0.0142,1.17866 0.18517,2.35019 0.58755,3.45763 0.46291,1.21783 1.15373,2.11161 2.05107,2.65999 1.00417,0.61603 2.63863,0.96856 4.49385,0.96856 0.83681,0.004 1.67362,-0.0748 2.49619,-0.22789 1.14305,-0.2101 2.24336,-0.60892 3.25466,-1.18222 0.83325,-0.48428 1.584603,-1.09676 2.222003,-1.81962 1.0647,-1.20714 1.7021,-2.55316 2.1757,-3.74606 h 0.18873 c 1.16797,0 1.88727,-0.46648 2.28253,-0.85818 0.26351,-0.24926 0.47004,-0.55193 0.60179,-0.89022 l 0.0819,-0.2457 z m -18.349293,1.01129 h 1.80538 c 0.0855,0 0.15668,-0.0712 0.15668,-0.15667 v -1.60597 c 0,-0.0855 -0.0712,-0.15668 -0.15668,-0.16024 h -1.80538 c -0.0855,0 -0.15668,0.0712 -0.15668,0.15668 v 1.60953 c 0,0.089 0.0712,0.15667 0.15668,0.15667 m 2.48907,0 h 1.80537 c 0.0855,0 0.15668,-0.0712 0.15668,-0.15667 v -1.60597 c 0,-0.0855 -0.0712,-0.15668 -0.15668,-0.16024 h -1.80537 c -0.089,0 -0.16024,0.0712 -0.16024,0.16024 v 1.60597 c 0,0.089 0.0712,0.15667 0.16024,0.15667 m 2.52111,0.004 h 1.80538 c 0.0855,0 0.15667,-0.0712 0.15667,-0.15668 v -1.60597 c 0,-0.0855 -0.0712,-0.15668 -0.15667,-0.16024 h -1.80538 c -0.0855,0 -0.15668,0.0712 -0.15668,0.15668 v 1.60953 c 0,0.0855 0.0712,0.15311 0.15668,0.15668 m 2.49619,0 h 1.80537 c 0.0855,0 0.15668,-0.0712 0.16024,-0.15668 v -1.60597 c 0,-0.089 -0.0712,-0.16024 -0.16024,-0.16024 h -1.80537 c -0.0855,0 -0.15668,0.0712 -0.15668,0.15668 v 1.60953 c 0,0.0855 0.0677,0.15668 0.15668,0.15668 m -5.02086,-2.31459 h 1.80537 c 0.0855,0 0.15668,-0.0712 0.15668,-0.16024 v -1.60596 c 0,-0.0855 -0.0712,-0.15668 -0.15668,-0.15668 h -1.80537 c -0.089,0 -0.15668,0.0712 -0.16024,0.15668 v 1.60596 c 0.004,0.089 0.0748,0.16024 0.16024,0.16024 m 2.52467,0 h 1.80538 c 0.0855,0 0.15667,-0.0712 0.15667,-0.16024 v -1.60596 c 0,-0.0855 -0.0712,-0.15668 -0.15667,-0.15668 h -1.80538 c -0.0855,0 -0.15668,0.0712 -0.15668,0.15668 v 1.60596 c 0,0.089 0.0712,0.16024 0.15668,0.16024 m 2.49619,0 h 1.80537 c 0.089,0 0.15668,-0.0712 0.16024,-0.16024 v -1.60596 c 0,-0.089 -0.0712,-0.15668 -0.16024,-0.15668 h -1.80537 c -0.0855,0 -0.15668,0.0712 -0.15668,0.15668 v 1.60596 c 0,0.089 0.0677,0.16024 0.15668,0.16024 m 0,-2.31102 h 1.80537 c 0.089,0 0.16024,-0.0712 0.16024,-0.16024 v -1.60952 c 0,-0.0855 -0.0712,-0.15668 -0.16024,-0.15668 h -1.80537 c -0.0855,0 -0.15668,0.0712 -0.15668,0.15668 v 1.60952 c 0,0.089 0.0677,0.16024 0.15668,0.16024 m 2.51399,4.62561 h 1.80537 c 0.0855,0 0.15668,-0.0712 0.15668,-0.15668 v -1.60597 c 0,-0.089 -0.0712,-0.15668 -0.15668,-0.16024 h -1.80537 c -0.0855,0 -0.15668,0.0712 -0.15668,0.15668 v 1.60953 c 0,0.0855 0.0712,0.15668 0.15668,0.15668"
         style="fill:#ffffff;stroke-width:0.035609"
         id="path1-5" /><text
         xml:space="preserve"
         style="font-weight:bold;font-size:7.12912px;font-family:sans-serif;-inkscape-font-specification:'sans-serif Bold';writing-mode:lr-tb;direction:ltr;fill:#ffffff;stroke-width:0.267342"
         x="115.55895"
         y="125.45527"
         id="text2"
         transform="scale(0.94286574,1.0605964)"><tspan
           id="tspan2"
           style="fill:#ffffff;stroke-width:0.267342"
           x="115.55895"
           y="125.45527">Docker</tspan></text></g></g></svg>
