<?xml version="1.0" encoding="UTF-8" standalone="no"?>
<!-- Created with Inkscape (http://www.inkscape.org/) -->

<svg
   width="58.208332mm"
   height="16.933332mm"
   viewBox="0 0 58.208332 16.933332"
   version="1.1"
   id="svg1"
   xml:space="preserve"
   xmlns="http://www.w3.org/2000/svg"
   xmlns:svg="http://www.w3.org/2000/svg"><defs
     id="defs1" /><g
     id="layer1"
     transform="translate(-75.895836,-140.03334)"><g
       id="g2"
       transform="translate(-5.4709906,18.491932)"><path
         d="m 105.86689,128.21486 c -0.057,-0.0463 -0.5733,-0.43443 -1.66293,-0.43443 -0.28844,0 -0.57687,0.0214 -0.86174,0.0748 -0.21009,-1.44928 -1.40655,-2.15434 -1.45997,-2.18639 l -0.29199,-0.17092 -0.19229,0.27775 c -0.24214,0.37389 -0.41662,0.78339 -0.51989,1.21782 -0.19585,0.82613 -0.0783,1.60241 0.34185,2.26473 -0.50565,0.28131 -1.321103,0.35253 -1.484903,0.35609 h -13.46374 c -0.35253,0 -0.6374,0.28487 -0.6374,0.6374 -0.0142,1.17866 0.18517,2.35019 0.58755,3.45763 0.46291,1.21783 1.15373,2.11161 2.05107,2.65999 1.00417,0.61603 2.63863,0.96856 4.49385,0.96856 0.83681,0.004 1.67362,-0.0748 2.49619,-0.22789 1.14305,-0.2101 2.24336,-0.60892 3.25466,-1.18222 0.83325,-0.48428 1.584603,-1.09676 2.222003,-1.81962 1.0647,-1.20714 1.7021,-2.55316 2.1757,-3.74606 h 0.18873 c 1.16797,0 1.88727,-0.46648 2.28253,-0.85818 0.26351,-0.24926 0.47004,-0.55193 0.60179,-0.89022 l 0.0819,-0.2457 z m -18.349293,1.01129 h 1.80538 c 0.0855,0 0.15668,-0.0712 0.15668,-0.15667 v -1.60597 c 0,-0.0855 -0.0712,-0.15668 -0.15668,-0.16024 h -1.80538 c -0.0855,0 -0.15668,0.0712 -0.15668,0.15668 v 1.60953 c 0,0.089 0.0712,0.15667 0.15668,0.15667 m 2.48907,0 h 1.80537 c 0.0855,0 0.15668,-0.0712 0.15668,-0.15667 v -1.60597 c 0,-0.0855 -0.0712,-0.15668 -0.15668,-0.16024 h -1.80537 c -0.089,0 -0.16024,0.0712 -0.16024,0.16024 v 1.60597 c 0,0.089 0.0712,0.15667 0.16024,0.15667 m 2.52111,0.004 h 1.80538 c 0.0855,0 0.15667,-0.0712 0.15667,-0.15668 v -1.60597 c 0,-0.0855 -0.0712,-0.15668 -0.15667,-0.16024 h -1.80538 c -0.0855,0 -0.15668,0.0712 -0.15668,0.15668 v 1.60953 c 0,0.0855 0.0712,0.15311 0.15668,0.15668 m 2.49619,0 h 1.80537 c 0.0855,0 0.15668,-0.0712 0.16024,-0.15668 v -1.60597 c 0,-0.089 -0.0712,-0.16024 -0.16024,-0.16024 h -1.80537 c -0.0855,0 -0.15668,0.0712 -0.15668,0.15668 v 1.60953 c 0,0.0855 0.0677,0.15668 0.15668,0.15668 m -5.02086,-2.31459 h 1.80537 c 0.0855,0 0.15668,-0.0712 0.15668,-0.16024 v -1.60596 c 0,-0.0855 -0.0712,-0.15668 -0.15668,-0.15668 h -1.80537 c -0.089,0 -0.15668,0.0712 -0.16024,0.15668 v 1.60596 c 0.004,0.089 0.0748,0.16024 0.16024,0.16024 m 2.52467,0 h 1.80538 c 0.0855,0 0.15667,-0.0712 0.15667,-0.16024 v -1.60596 c 0,-0.0855 -0.0712,-0.15668 -0.15667,-0.15668 h -1.80538 c -0.0855,0 -0.15668,0.0712 -0.15668,0.15668 v 1.60596 c 0,0.089 0.0712,0.16024 0.15668,0.16024 m 2.49619,0 h 1.80537 c 0.089,0 0.15668,-0.0712 0.16024,-0.16024 v -1.60596 c 0,-0.089 -0.0712,-0.15668 -0.16024,-0.15668 h -1.80537 c -0.0855,0 -0.15668,0.0712 -0.15668,0.15668 v 1.60596 c 0,0.089 0.0677,0.16024 0.15668,0.16024 m 0,-2.31102 h 1.80537 c 0.089,0 0.16024,-0.0712 0.16024,-0.16024 v -1.60952 c 0,-0.0855 -0.0712,-0.15668 -0.16024,-0.15668 h -1.80537 c -0.0855,0 -0.15668,0.0712 -0.15668,0.15668 v 1.60952 c 0,0.089 0.0677,0.16024 0.15668,0.16024 m 2.51399,4.62561 h 1.80537 c 0.0855,0 0.15668,-0.0712 0.15668,-0.15668 v -1.60597 c 0,-0.089 -0.0712,-0.15668 -0.15668,-0.16024 h -1.80537 c -0.0855,0 -0.15668,0.0712 -0.15668,0.15668 v 1.60953 c 0,0.0855 0.0712,0.15668 0.15668,0.15668"
         style="fill:#ffffff;stroke-width:0.035609"
         id="path1-5" /><text
         xml:space="preserve"
         style="font-weight:bold;font-size:7.12912px;font-family:sans-serif;-inkscape-font-specification:'sans-serif Bold';writing-mode:lr-tb;direction:ltr;fill:#ffffff;stroke-width:0.267342"
         x="115.55895"
         y="125.45527"
         id="text2"
         transform="scale(0.94286574,1.0605964)"><tspan
           id="tspan2"
           style="fill:#ffffff;stroke-width:0.267342"
           x="115.55895"
           y="125.45527">Docker</tspan></text></g><rect
       width="58.208332"
       height="16.933332"
       rx="3.175"
       fill="#ea580c"
       id="rect1-1"
       x="75.895836"
       y="140.03334"
       style="fill:#b3b3b3;stroke-width:0.264583" /><g
       style="fill:#000000"
       id="g3"
       transform="matrix(0.74727704,0,0,0.74727704,93.043196,136.5442)"><path
         d="m 30.026,15.139 c -0.082,-0.006 -0.177,-0.01 -0.273,-0.01 -0.484,0 -0.947,0.09 -1.373,0.254 l 0.026,-0.009 c -0.125,0.05 -0.325,0.05 -0.342,0.209 0.069,0.066 0.079,0.175 0.137,0.267 0.117,0.198 0.261,0.366 0.429,0.506 l 0.003,0.003 c 0.175,0.137 0.35,0.27 0.534,0.387 0.325,0.2 0.694,0.319 1.012,0.52 0.181,0.117 0.366,0.266 0.55,0.391 0.091,0.062 0.15,0.175 0.267,0.215 V 17.847 C 30.939,17.772 30.921,17.663 30.865,17.58 30.781,17.496 30.698,17.421 30.615,17.339 30.367,17.014 30.08,16.736 29.758,16.504 l -0.012,-0.008 c -0.267,-0.182 -0.852,-0.437 -0.962,-0.744 l -0.016,-0.018 c 0.218,-0.031 0.412,-0.077 0.599,-0.139 l -0.024,0.007 c 0.284,-0.075 0.544,-0.059 0.837,-0.132 0.132,-0.034 0.266,-0.075 0.4,-0.117 v -0.075 c -0.15,-0.15 -0.262,-0.354 -0.417,-0.494 -0.409,-0.36 -0.86,-0.698 -1.335,-1.002 l -0.045,-0.027 c -0.262,-0.167 -0.595,-0.275 -0.871,-0.417 -0.1,-0.05 -0.267,-0.075 -0.325,-0.159 -0.13,-0.185 -0.245,-0.397 -0.336,-0.621 L 27.243,12.536 Q 26.875,11.822 26.559,11.083 C 26.415,10.7 26.272,10.386 26.111,10.082 l 0.023,0.047 C 25.348,8.81 24.253,7.75 22.946,7.027 L 22.903,7.005 C 22.594,6.852 22.235,6.733 21.858,6.666 L 21.833,6.662 C 21.624,6.652 21.416,6.637 21.208,6.628 21.062,6.534 20.936,6.438 20.818,6.332 l 0.003,0.003 c -0.475,-0.3 -1.704,-0.95 -2.054,-0.09 -0.225,0.542 0.334,1.077 0.527,1.352 0.154,0.183 0.294,0.388 0.415,0.605 l 0.01,0.02 c 0.059,0.145 0.075,0.294 0.134,0.445 0.145,0.452 0.292,0.823 0.459,1.182 L 20.286,9.787 c 0.099,0.199 0.202,0.368 0.317,0.528 l -0.008,-0.012 c 0.067,0.091 0.182,0.134 0.209,0.284 -0.086,0.181 -0.153,0.391 -0.19,0.61 l -0.002,0.014 c -0.108,0.332 -0.171,0.715 -0.171,1.112 0,0.621 0.153,1.206 0.423,1.72 l -0.01,-0.02 c 0.134,0.207 0.452,0.667 0.878,0.491 0.375,-0.15 0.292,-0.625 0.4,-1.043 0.025,-0.1 0.009,-0.166 0.06,-0.234 v 0.019 c 0.117,0.235 0.235,0.459 0.342,0.694 0.302,0.435 0.661,0.805 1.071,1.11 l 0.013,0.009 c 0.2,0.15 0.359,0.41 0.609,0.502 v -0.025 h -0.019 c -0.057,-0.062 -0.12,-0.117 -0.189,-0.164 L 24.015,15.38 C 23.86,15.228 23.716,15.064 23.586,14.891 L 23.578,14.88 c -0.326,-0.44 -0.636,-0.938 -0.905,-1.461 l -0.029,-0.061 c -0.137,-0.262 -0.252,-0.545 -0.362,-0.804 -0.05,-0.1 -0.05,-0.25 -0.134,-0.3 -0.148,0.166 -0.281,0.351 -0.392,0.55 l -0.008,0.016 c -0.128,0.373 -0.212,0.804 -0.234,1.251 v 0.011 c -0.034,0.009 -0.017,0 -0.034,0.018 -0.267,-0.065 -0.359,-0.342 -0.459,-0.575 -0.136,-0.366 -0.215,-0.79 -0.215,-1.231 0,-0.356 0.051,-0.7 0.147,-1.025 l -0.006,0.026 C 21.006,11.12 21.256,10.568 21.156,10.4 21.104,10.241 20.939,10.15 20.847,10.021 20.738,9.867 20.638,9.692 20.555,9.507 L 20.547,9.487 C 20.347,9.02 20.247,8.502 20.03,8.035 19.899,7.791 19.761,7.581 19.606,7.385 l 0.007,0.009 C 19.448,7.203 19.296,6.99 19.164,6.764 L 19.153,6.744 C 19.112,6.653 19.053,6.502 19.119,6.402 19.131,6.344 19.177,6.299 19.236,6.29 h 10e-4 c 0.11,-0.09 0.419,0.027 0.527,0.077 0.317,0.12 0.59,0.261 0.843,0.427 l -0.016,-0.01 c 0.117,0.082 0.244,0.241 0.394,0.282 h 0.175 c 0.267,0.059 0.569,0.018 0.819,0.091 0.459,0.155 0.856,0.349 1.223,0.587 L 23.181,7.731 c 1.104,0.713 1.988,1.677 2.586,2.816 l 0.02,0.041 c 0.1,0.192 0.144,0.369 0.235,0.569 0.175,0.412 0.391,0.829 0.569,1.227 0.169,0.428 0.369,0.798 0.607,1.139 l -0.012,-0.018 c 0.125,0.175 0.627,0.266 0.852,0.357 0.237,0.083 0.427,0.162 0.611,0.251 l -0.037,-0.016 c 0.287,0.175 0.567,0.375 0.837,0.567 0.137,0.095 0.554,0.304 0.579,0.472 z m -11.724,7.313 c 0,0.015 0.001,0.032 0.001,0.049 0,0.558 -0.249,1.057 -0.643,1.393 l -0.003,0.002 c -0.432,0.352 -0.989,0.566 -1.596,0.566 -0.047,0 -0.094,-0.001 -0.14,-0.004 h 0.006 c -0.739,-0.01 -1.419,-0.25 -1.976,-0.651 l 0.01,0.007 0.296,-0.595 c 0.429,0.24 0.939,0.389 1.481,0.41 h 0.006 c 0.027,0.002 0.058,0.003 0.09,0.003 0.332,0 0.641,-0.104 0.894,-0.281 l -0.005,0.003 c 0.229,-0.174 0.375,-0.446 0.375,-0.752 0,-0.006 0,-0.011 0,-0.017 v 10e-4 c 0,-0.412 -0.287,-0.762 -0.81,-1.056 -0.485,-0.266 -1.453,-0.821 -1.453,-0.821 -0.478,-0.296 -0.791,-0.817 -0.791,-1.411 0,-0.021 0,-0.042 10e-4,-0.063 v 0.003 c -10e-4,-0.019 -10e-4,-0.041 -10e-4,-0.063 0,-0.515 0.227,-0.977 0.586,-1.291 l 0.002,-0.002 c 0.382,-0.324 0.881,-0.521 1.426,-0.521 0.035,0 0.069,10e-4 0.103,0.002 h -0.005 c 0.009,0 0.02,0 0.031,0 0.639,0 1.234,0.191 1.73,0.52 l -0.012,-0.007 -0.266,0.595 C 17.248,18.295 16.792,18.189 16.312,18.184 H 16.31 c -0.024,-0.002 -0.051,-0.003 -0.079,-0.003 -0.28,0 -0.538,0.098 -0.74,0.262 l 0.002,-0.002 c -0.189,0.157 -0.309,0.392 -0.31,0.655 v 0 c 0,0.41 0.292,0.762 0.832,1.062 0.491,0.269 1.483,0.837 1.483,0.837 0.488,0.287 0.811,0.809 0.811,1.407 0,0.018 0,0.037 -0.001,0.055 v -0.003 z m 2.072,0.531 c -0.273,-0.545 -0.432,-1.187 -0.432,-1.866 0,-0.107 0.004,-0.213 0.012,-0.317 l -0.001,0.014 q 0,-2.611 1.587,-2.612 c 0.026,-0.002 0.057,-0.003 0.089,-0.003 0.475,0 0.892,0.248 1.129,0.622 l 0.003,0.005 c 0.271,0.542 0.43,1.182 0.43,1.858 0,0.104 -0.004,0.207 -0.011,0.309 l 0.001,-0.014 q 0,2.632 -1.587,2.634 c -0.027,0.002 -0.058,0.003 -0.089,0.003 -0.475,0 -0.893,-0.248 -1.13,-0.622 l -0.003,-0.005 z m 4.114,1.552 -1.27,-0.625 c 0.116,-0.097 0.22,-0.199 0.316,-0.309 l 0.003,-0.003 c 0.513,-0.692 0.821,-1.563 0.821,-2.505 0,-0.109 -0.004,-0.217 -0.012,-0.324 l 0.001,0.014 q 0,-3.43 -2.693,-3.432 c -0.04,-0.002 -0.087,-0.003 -0.134,-0.003 -0.767,0 -1.456,0.337 -1.925,0.872 l -0.002,0.003 c -0.511,0.692 -0.818,1.562 -0.818,2.504 0,0.106 0.004,0.211 0.012,0.315 l -10e-4,-0.014 c -0.009,0.101 -0.014,0.219 -0.014,0.338 0,0.874 0.274,1.684 0.74,2.349 l -0.009,-0.013 c 0.449,0.478 1.086,0.776 1.791,0.776 0.066,0 0.131,-0.003 0.195,-0.008 l -0.009,0.001 c 0.009,0 0.021,0 0.032,0 0.311,0 0.612,-0.045 0.897,-0.128 l -0.022,0.006 1.656,0.965 0.45,-0.777 z m 4.148,-0.169 h -3.287 v -6.91 h 1.106 v 6.061 h 2.181 z M 13.235,19.268 c -0.287,2.084 -0.944,3.965 -1.905,5.65 l 0.04,-0.077 c -0.385,0.741 -1.113,1.257 -1.968,1.34 l -0.01,10e-4 C 9.133,26.168 8.892,26.106 8.673,26.005 l 0.012,0.005 v -0.617 c 0.137,0.021 0.295,0.033 0.456,0.033 0.009,0 0.018,0 0.028,0 H 9.168 c 0.016,0.001 0.034,0.001 0.052,0.001 0.289,0 0.554,-0.105 0.758,-0.28 l -0.002,0.001 c 0.22,-0.181 0.361,-0.451 0.369,-0.755 v -0.001 c -0.053,-0.438 -0.154,-0.837 -0.299,-1.214 l 0.012,0.034 -1.267,-3.944 h 1.137 l 0.909,2.949 c 0.162,0.416 0.256,0.898 0.256,1.401 0,0.001 0,0.002 0,0.002 v 0 c 0.482,-1.262 0.848,-2.734 1.034,-4.261 l 0.009,-0.092 z m -5.02,5.098 H 7.057 Q 7.008,21.605 6.72,18.855 H 6.71 L 4.948,24.366 H 4.067 L 2.317,18.855 H 2.305 Q 2.1,21.606 2.061,24.366 H 1.005 q 0.103,-3.685 0.512,-6.911 h 1.437 l 1.668,5.079 h 0.01 l 1.683,-5.079 h 1.368 q 0.454,3.777 0.535,6.911 z M 21.505,7.879 c -0.002,0 -0.005,0 -0.008,0 -0.119,0 -0.234,0.015 -0.344,0.043 l 0.01,-0.002 v 0.016 h 0.017 c 0.086,0.128 0.174,0.239 0.269,0.343 L 21.447,8.277 c 0.067,0.134 0.125,0.267 0.192,0.4 l 0.017,-0.019 c 0.109,-0.086 0.178,-0.218 0.178,-0.366 0,-0.018 -0.001,-0.035 -0.003,-0.053 V 8.241 C 21.781,8.182 21.774,8.124 21.731,8.066 21.681,7.982 21.574,7.941 21.506,7.875 Z"
         id="path1" /></g></g></svg>
