<?xml version="1.0" encoding="UTF-8" standalone="no"?>
<!-- Created with Inkscape (http://www.inkscape.org/) -->

<svg
   width="58.208332mm"
   height="16.933332mm"
   viewBox="0 0 58.208332 16.933332"
   version="1.1"
   id="svg1"
   xml:space="preserve"
   xmlns="http://www.w3.org/2000/svg"
   xmlns:svg="http://www.w3.org/2000/svg"><defs
     id="defs1" /><g
     id="layer1"
     transform="translate(-75.895836,-140.03334)"><g
       id="g2"
       transform="translate(-5.4709906,18.491932)"><path
         d="m 105.86689,128.21486 c -0.057,-0.0463 -0.5733,-0.43443 -1.66293,-0.43443 -0.28844,0 -0.57687,0.0214 -0.86174,0.0748 -0.21009,-1.44928 -1.40655,-2.15434 -1.45997,-2.18639 l -0.29199,-0.17092 -0.19229,0.27775 c -0.24214,0.37389 -0.41662,0.78339 -0.51989,1.21782 -0.19585,0.82613 -0.0783,1.60241 0.34185,2.26473 -0.50565,0.28131 -1.321103,0.35253 -1.484903,0.35609 h -13.46374 c -0.35253,0 -0.6374,0.28487 -0.6374,0.6374 -0.0142,1.17866 0.18517,2.35019 0.58755,3.45763 0.46291,1.21783 1.15373,2.11161 2.05107,2.65999 1.00417,0.61603 2.63863,0.96856 4.49385,0.96856 0.83681,0.004 1.67362,-0.0748 2.49619,-0.22789 1.14305,-0.2101 2.24336,-0.60892 3.25466,-1.18222 0.83325,-0.48428 1.584603,-1.09676 2.222003,-1.81962 1.0647,-1.20714 1.7021,-2.55316 2.1757,-3.74606 h 0.18873 c 1.16797,0 1.88727,-0.46648 2.28253,-0.85818 0.26351,-0.24926 0.47004,-0.55193 0.60179,-0.89022 l 0.0819,-0.2457 z m -18.349293,1.01129 h 1.80538 c 0.0855,0 0.15668,-0.0712 0.15668,-0.15667 v -1.60597 c 0,-0.0855 -0.0712,-0.15668 -0.15668,-0.16024 h -1.80538 c -0.0855,0 -0.15668,0.0712 -0.15668,0.15668 v 1.60953 c 0,0.089 0.0712,0.15667 0.15668,0.15667 m 2.48907,0 h 1.80537 c 0.0855,0 0.15668,-0.0712 0.15668,-0.15667 v -1.60597 c 0,-0.0855 -0.0712,-0.15668 -0.15668,-0.16024 h -1.80537 c -0.089,0 -0.16024,0.0712 -0.16024,0.16024 v 1.60597 c 0,0.089 0.0712,0.15667 0.16024,0.15667 m 2.52111,0.004 h 1.80538 c 0.0855,0 0.15667,-0.0712 0.15667,-0.15668 v -1.60597 c 0,-0.0855 -0.0712,-0.15668 -0.15667,-0.16024 h -1.80538 c -0.0855,0 -0.15668,0.0712 -0.15668,0.15668 v 1.60953 c 0,0.0855 0.0712,0.15311 0.15668,0.15668 m 2.49619,0 h 1.80537 c 0.0855,0 0.15668,-0.0712 0.16024,-0.15668 v -1.60597 c 0,-0.089 -0.0712,-0.16024 -0.16024,-0.16024 h -1.80537 c -0.0855,0 -0.15668,0.0712 -0.15668,0.15668 v 1.60953 c 0,0.0855 0.0677,0.15668 0.15668,0.15668 m -5.02086,-2.31459 h 1.80537 c 0.0855,0 0.15668,-0.0712 0.15668,-0.16024 v -1.60596 c 0,-0.0855 -0.0712,-0.15668 -0.15668,-0.15668 h -1.80537 c -0.089,0 -0.15668,0.0712 -0.16024,0.15668 v 1.60596 c 0.004,0.089 0.0748,0.16024 0.16024,0.16024 m 2.52467,0 h 1.80538 c 0.0855,0 0.15667,-0.0712 0.15667,-0.16024 v -1.60596 c 0,-0.0855 -0.0712,-0.15668 -0.15667,-0.15668 h -1.80538 c -0.0855,0 -0.15668,0.0712 -0.15668,0.15668 v 1.60596 c 0,0.089 0.0712,0.16024 0.15668,0.16024 m 2.49619,0 h 1.80537 c 0.089,0 0.15668,-0.0712 0.16024,-0.16024 v -1.60596 c 0,-0.089 -0.0712,-0.15668 -0.16024,-0.15668 h -1.80537 c -0.0855,0 -0.15668,0.0712 -0.15668,0.15668 v 1.60596 c 0,0.089 0.0677,0.16024 0.15668,0.16024 m 0,-2.31102 h 1.80537 c 0.089,0 0.16024,-0.0712 0.16024,-0.16024 v -1.60952 c 0,-0.0855 -0.0712,-0.15668 -0.16024,-0.15668 h -1.80537 c -0.0855,0 -0.15668,0.0712 -0.15668,0.15668 v 1.60952 c 0,0.089 0.0677,0.16024 0.15668,0.16024 m 2.51399,4.62561 h 1.80537 c 0.0855,0 0.15668,-0.0712 0.15668,-0.15668 v -1.60597 c 0,-0.089 -0.0712,-0.15668 -0.15668,-0.16024 h -1.80537 c -0.0855,0 -0.15668,0.0712 -0.15668,0.15668 v 1.60953 c 0,0.0855 0.0712,0.15668 0.15668,0.15668"
         style="fill:#ffffff;stroke-width:0.035609"
         id="path1-5" /><text
         xml:space="preserve"
         style="font-weight:bold;font-size:7.12912px;font-family:sans-serif;-inkscape-font-specification:'sans-serif Bold';writing-mode:lr-tb;direction:ltr;fill:#ffffff;stroke-width:0.267342"
         x="115.55895"
         y="125.45527"
         id="text2"
         transform="scale(0.94286574,1.0605964)"><tspan
           id="tspan2"
           style="fill:#ffffff;stroke-width:0.267342"
           x="115.55895"
           y="125.45527">Docker</tspan></text></g><rect
       width="58.208332"
       height="16.933332"
       rx="3.175"
       fill="#ea580c"
       id="rect1-1"
       x="76.09346"
       y="140.03334"
       style="fill:#1a1a1a;stroke-width:0.264583" /><text
       xml:space="preserve"
       style="font-style:normal;font-variant:normal;font-weight:bold;font-stretch:normal;font-size:9.42263px;font-family:sans-serif;-inkscape-font-specification:'sans-serif Bold';writing-mode:lr-tb;direction:ltr;fill:#ffffff;stroke-width:0.353348"
       x="99.561752"
       y="151.85635"
       id="text3"><tspan
         id="tspan3"
         style="font-style:normal;font-variant:normal;font-weight:bold;font-stretch:normal;font-family:sans-serif;-inkscape-font-specification:'sans-serif Bold';stroke-width:0.353348"
         x="99.561752"
         y="151.85635">React</tspan></text><g
       style="fill:none"
       id="g3"
       transform="matrix(0.60013497,0,0,0.60013497,76.733878,138.89785)"><path
         d="m 18.6789,15.9759 c 0,-1.4344 -1.1993,-2.5974 -2.6789,-2.5974 -1.4794,0 -2.6789,1.163 -2.6789,2.5974 0,1.4346 1.1995,2.5975 2.6789,2.5975 1.4796,0 2.6789,-1.1629 2.6789,-2.5975 z"
         fill="#53c1de"
         id="path1" /><path
         fill-rule="evenodd"
         clip-rule="evenodd"
         d="M 24.7004,11.1537 C 25.2661,8.92478 25.9772,4.79148 23.4704,3.39016 20.9753,1.99495 17.7284,4.66843 16.0139,6.27318 14.3044,4.68442 10.9663,2.02237 8.46163,3.42814 5.96751,4.82803 6.73664,8.8928 7.3149,11.1357 4.98831,11.7764 1,13.1564 1,15.9759 c 0,2.8115 3.98416,4.3129 6.29698,4.953 -0.5804,2.2553 -1.31102,6.262 1.18629,7.6588 2.51403,1.4055 5.84173,-1.1932 7.57213,-2.8155 1.7255,1.6142 4.9412,4.2299 7.4368,2.8292 2.5034,-1.4051 1.8514,-5.483 1.2731,-7.7389 C 27.0073,20.221 31,18.7523 31,15.9759 31,13.1835 26.9903,11.7923 24.7004,11.1537 Z m -0.2842,8.5133 c -0.3797,-1.1654 -0.8922,-2.4047 -1.5191,-3.6849 0.5984,-1.25 1.091,-2.4733 1.4601,-3.6312 1.6787,0.4719 5.3613,1.5504 5.3613,3.625 0,2.0941 -3.5339,3.1828 -5.3023,3.6911 z M 22.85,27.526 c -1.862,1.045 -4.6279,-1.4564 -5.9022,-2.6451 0.8454,-0.8965 1.6902,-1.9387 2.5147,-3.096 1.4504,-0.1247 2.8205,-0.3287 4.0631,-0.6072 0.407,1.5957 1.1946,5.2986 -0.6756,6.3483 z M 9.12362,27.5111 C 7.26143,26.47 8.11258,22.8946 8.53957,21.2333 c 1.22877,0.2636 2.58903,0.4532 4.04283,0.5675 0.8299,1.1324 1.6992,2.1733 2.5752,3.0849 -1.0823,1.0151 -4.1631,3.6713 -6.03398,2.6254 z M 2.28149,15.9759 c 0,-2.1019 3.66058,-3.1726 5.37755,-3.6433 0.37547,1.1839 0.86791,2.4218 1.46219,3.6736 C 8.51925,17.2766 8.01977,18.5341 7.64085,19.732 6.00369,19.2776 2.28149,18.0791 2.28149,15.9759 Z M 9.1037,4.50354 c 1.8698,-1.04938 4.771,1.50629 6.0122,2.65659 C 14.2444,8.06754 13.3831,9.1006 12.5603,10.2265 11.1494,10.3533 9.79875,10.5569 8.55709,10.8297 8.09125,9.02071 7.23592,5.55179 9.1037,4.50354 Z m 11.2756,7.07356 c 0.9572,0.1171 1.8743,0.2729 2.7354,0.4635 -0.2585,0.8034 -0.5807,1.6435 -0.9602,2.5047 -0.5501,-1.012 -1.1406,-2.0037 -1.7752,-2.9682 z m -4.365,-3.529 c 0.5911,0.62087 1.1831,1.3142 1.7655,2.0664 -1.1813,-0.0542 -2.3645,-0.0544 -3.5458,-8e-4 0.5829,-0.74522 1.18,-1.43752 1.7803,-2.0656 z M 9.8565,14.5444 C 9.48329,13.6862 9.16398,12.8424 8.90322,12.0275 9.75918,11.8418 10.672,11.69 11.623,11.5748 c -0.6364,0.9624 -1.2259,1.9537 -1.7665,2.9696 z m 1.7938,5.9213 c -0.9824,-0.1063 -1.90904,-0.2504 -2.76474,-0.431 0.26488,-0.8292 0.59122,-1.6912 0.9724,-2.5679 0.54804,1.0265 1.14654,2.0274 1.79234,2.9989 z m 4.3995,3.5258 c -0.6074,-0.6355 -1.2133,-1.3384 -1.805,-2.0944 1.188,0.0452 2.3783,0.0453 3.5662,-0.0061 -0.5842,0.7698 -1.1741,1.4737 -1.7612,2.1005 z m 6.1169,-6.5693 c 0.401,0.8862 0.739,1.7435 1.0075,2.5587 -0.8699,0.1925 -1.809,0.3475 -2.7985,0.4626 0.6393,-0.9828 1.2392,-1.9899 1.791,-3.0213 z m -3.4194,3.1719 c -1.8172,0.1259 -3.6457,0.1245 -5.4635,0.0103 -1.0329,-1.4629 -1.9524,-3.0014 -2.7461,-4.5986 0.7899,-1.5939 1.7027,-3.1294 2.7307,-4.59 1.8191,-0.1333 3.6494,-0.1337 5.4685,8e-4 1.0192,1.4605 1.9306,2.992 2.7388,4.5715 -0.7986,1.5931 -1.7162,3.1317 -2.7284,4.606 z m 4.083,-16.1275 c 1.8703,1.04594 1.0378,4.76066 0.6292,6.376 C 22.2149,10.5641 20.8633,10.3569 19.4483,10.2281 18.6239,9.09004 17.7698,8.05518 16.9124,7.15949 18.1695,5.98441 20.9781,3.43089 22.8303,4.4666 Z"
         fill="#53c1de"
         id="path2-7" /></g></g></svg>
