<?xml version="1.0" encoding="UTF-8" standalone="no"?>
<!-- Created with Inkscape (http://www.inkscape.org/) -->

<svg
   width="58.208332mm"
   height="16.933332mm"
   viewBox="0 0 58.208332 16.933332"
   version="1.1"
   id="svg1"
   xml:space="preserve"
   xmlns="http://www.w3.org/2000/svg"
   xmlns:svg="http://www.w3.org/2000/svg"><defs
     id="defs1" /><g
     id="layer1"
     transform="translate(-75.895836,-140.03334)"><g
       id="g2"
       transform="translate(-5.4709906,18.491932)"><path
         d="m 105.86689,128.21486 c -0.057,-0.0463 -0.5733,-0.43443 -1.66293,-0.43443 -0.28844,0 -0.57687,0.0214 -0.86174,0.0748 -0.21009,-1.44928 -1.40655,-2.15434 -1.45997,-2.18639 l -0.29199,-0.17092 -0.19229,0.27775 c -0.24214,0.37389 -0.41662,0.78339 -0.51989,1.21782 -0.19585,0.82613 -0.0783,1.60241 0.34185,2.26473 -0.50565,0.28131 -1.321103,0.35253 -1.484903,0.35609 h -13.46374 c -0.35253,0 -0.6374,0.28487 -0.6374,0.6374 -0.0142,1.17866 0.18517,2.35019 0.58755,3.45763 0.46291,1.21783 1.15373,2.11161 2.05107,2.65999 1.00417,0.61603 2.63863,0.96856 4.49385,0.96856 0.83681,0.004 1.67362,-0.0748 2.49619,-0.22789 1.14305,-0.2101 2.24336,-0.60892 3.25466,-1.18222 0.83325,-0.48428 1.584603,-1.09676 2.222003,-1.81962 1.0647,-1.20714 1.7021,-2.55316 2.1757,-3.74606 h 0.18873 c 1.16797,0 1.88727,-0.46648 2.28253,-0.85818 0.26351,-0.24926 0.47004,-0.55193 0.60179,-0.89022 l 0.0819,-0.2457 z m -18.349293,1.01129 h 1.80538 c 0.0855,0 0.15668,-0.0712 0.15668,-0.15667 v -1.60597 c 0,-0.0855 -0.0712,-0.15668 -0.15668,-0.16024 h -1.80538 c -0.0855,0 -0.15668,0.0712 -0.15668,0.15668 v 1.60953 c 0,0.089 0.0712,0.15667 0.15668,0.15667 m 2.48907,0 h 1.80537 c 0.0855,0 0.15668,-0.0712 0.15668,-0.15667 v -1.60597 c 0,-0.0855 -0.0712,-0.15668 -0.15668,-0.16024 h -1.80537 c -0.089,0 -0.16024,0.0712 -0.16024,0.16024 v 1.60597 c 0,0.089 0.0712,0.15667 0.16024,0.15667 m 2.52111,0.004 h 1.80538 c 0.0855,0 0.15667,-0.0712 0.15667,-0.15668 v -1.60597 c 0,-0.0855 -0.0712,-0.15668 -0.15667,-0.16024 h -1.80538 c -0.0855,0 -0.15668,0.0712 -0.15668,0.15668 v 1.60953 c 0,0.0855 0.0712,0.15311 0.15668,0.15668 m 2.49619,0 h 1.80537 c 0.0855,0 0.15668,-0.0712 0.16024,-0.15668 v -1.60597 c 0,-0.089 -0.0712,-0.16024 -0.16024,-0.16024 h -1.80537 c -0.0855,0 -0.15668,0.0712 -0.15668,0.15668 v 1.60953 c 0,0.0855 0.0677,0.15668 0.15668,0.15668 m -5.02086,-2.31459 h 1.80537 c 0.0855,0 0.15668,-0.0712 0.15668,-0.16024 v -1.60596 c 0,-0.0855 -0.0712,-0.15668 -0.15668,-0.15668 h -1.80537 c -0.089,0 -0.15668,0.0712 -0.16024,0.15668 v 1.60596 c 0.004,0.089 0.0748,0.16024 0.16024,0.16024 m 2.52467,0 h 1.80538 c 0.0855,0 0.15667,-0.0712 0.15667,-0.16024 v -1.60596 c 0,-0.0855 -0.0712,-0.15668 -0.15667,-0.15668 h -1.80538 c -0.0855,0 -0.15668,0.0712 -0.15668,0.15668 v 1.60596 c 0,0.089 0.0712,0.16024 0.15668,0.16024 m 2.49619,0 h 1.80537 c 0.089,0 0.15668,-0.0712 0.16024,-0.16024 v -1.60596 c 0,-0.089 -0.0712,-0.15668 -0.16024,-0.15668 h -1.80537 c -0.0855,0 -0.15668,0.0712 -0.15668,0.15668 v 1.60596 c 0,0.089 0.0677,0.16024 0.15668,0.16024 m 0,-2.31102 h 1.80537 c 0.089,0 0.16024,-0.0712 0.16024,-0.16024 v -1.60952 c 0,-0.0855 -0.0712,-0.15668 -0.16024,-0.15668 h -1.80537 c -0.0855,0 -0.15668,0.0712 -0.15668,0.15668 v 1.60952 c 0,0.089 0.0677,0.16024 0.15668,0.16024 m 2.51399,4.62561 h 1.80537 c 0.0855,0 0.15668,-0.0712 0.15668,-0.15668 v -1.60597 c 0,-0.089 -0.0712,-0.15668 -0.15668,-0.16024 h -1.80537 c -0.0855,0 -0.15668,0.0712 -0.15668,0.15668 v 1.60953 c 0,0.0855 0.0712,0.15668 0.15668,0.15668"
         style="fill:#ffffff;stroke-width:0.035609"
         id="path1-5" /><text
         xml:space="preserve"
         style="font-weight:bold;font-size:7.12912px;font-family:sans-serif;-inkscape-font-specification:'sans-serif Bold';writing-mode:lr-tb;direction:ltr;fill:#ffffff;stroke-width:0.267342"
         x="115.55895"
         y="125.45527"
         id="text2"
         transform="scale(0.94286574,1.0605964)"><tspan
           id="tspan2"
           style="fill:#ffffff;stroke-width:0.267342"
           x="115.55895"
           y="125.45527">Docker</tspan></text></g><rect
       width="58.208332"
       height="16.933332"
       rx="3.175"
       fill="#ea580c"
       id="rect1-1"
       x="76.09346"
       y="140.03334"
       style="stroke-width:0.264583" /><g
       id="databases-and-servers/databases/redis"
       stroke="none"
       stroke-width="1"
       fill="none"
       fill-rule="evenodd"
       transform="matrix(0.20747098,0,0,0.20747098,78.223578,140.92732)"><g
         id="container"
         transform="translate(2,2)"
         fill="#ffffff"
         fill-rule="nonzero"
         stroke="#5c0d06"
         stroke-width="2"><rect
           id="mask"
           x="-1"
           y="-1"
           width="71"
           height="71"
           rx="14" /></g><g
         id="Redis_Logo"
         transform="translate(13,16)"
         fill-rule="nonzero"><path
           d="M 43.900393,30.280751 C 41.476908,31.544017 28.922203,36.706 26.249376,38.099277 23.576549,39.493087 22.091705,39.479472 19.9803,38.470087 17.868895,37.460703 4.5084974,32.064059 2.1018319,30.913719 0.89889957,30.338682 0.26646579,29.853611 0.26646579,29.395237 v -4.590418 c 0,0 17.39339721,-3.786594 20.20157421,-4.793842 2.80791,-1.007516 3.782055,-1.043823 6.171635,-0.168454 2.389847,0.87537 16.678206,3.453425 19.040021,4.318383 0,0 -0.0011,4.099741 -0.0011,4.525279 2.67e-4,0.453836 -0.544604,0.95172 -1.778236,1.594566 z"
           id="Shape"
           fill="#a41e11" /><path
           d="m 43.900393,25.688998 c -2.423485,1.262732 -14.97819,6.42525 -17.651017,7.818527 -2.672827,1.39381 -4.157671,1.380195 -6.269076,0.37081 C 17.868628,32.869485 4.5084974,27.471773 2.1018319,26.321966 -0.30483362,25.171625 -0.3552895,24.379815 2.0089289,23.454257 4.3728804,22.528164 17.659863,17.315191 20.468307,16.307675 c 2.80791,-1.006982 3.782056,-1.043823 6.171635,-0.168186 2.389847,0.875369 14.869536,5.842737 17.231085,6.707695 2.362082,0.865759 2.45285,1.578549 0.02937,2.841814 z"
           id="path1-52"
           fill="#d82c20" /><path
           d="m 43.900393,22.795127 c -2.423485,1.263265 -14.97819,6.425249 -17.651017,7.81906 -2.672827,1.393276 -4.157671,1.379661 -6.269076,0.370276 C 17.868628,29.975613 4.5084974,24.578435 2.1018319,23.428094 0.89889957,22.853057 0.26646579,22.368521 0.26646579,21.910147 v -4.590952 c 0,0 17.39339721,-3.786327 20.20157421,-4.793843 2.80791,-1.007248 3.782055,-1.043822 6.171635,-0.168453 2.389847,0.87537 16.678206,3.452891 19.040021,4.318116 0,0 -0.0011,4.099741 -0.0011,4.525813 2.67e-4,0.453569 -0.544604,0.951453 -1.778236,1.594299 z"
           id="path2"
           fill="#a41e11" /><path
           d="m 43.900393,18.203374 c -2.423485,1.263266 -14.97819,6.42525 -17.651017,7.81906 -2.672827,1.393277 -4.157671,1.379662 -6.269076,0.370277 C 17.868628,25.38386 4.5084974,19.986416 2.1018319,18.836342 -0.30483362,17.686268 -0.3552895,16.894458 2.008929,15.968366 4.3728805,15.042807 17.659863,9.8295667 20.468307,8.8223178 c 2.80791,-1.0072489 3.782056,-1.0438227 6.171635,-0.1684532 2.389847,0.8753695 14.869536,5.8424704 17.231085,6.7076954 2.362082,0.865492 2.45285,1.578549 0.02937,2.841814 z"
           id="path3"
           fill="#d82c20" /><path
           d="M 43.900393,15.031862 C 41.476908,16.295128 28.922203,21.457378 26.249376,22.851189 23.576549,24.244465 22.091705,24.23085 19.9803,23.221466 17.868628,22.212615 4.5084974,16.81517 2.1018319,15.665097 0.89889957,15.09006 0.26646579,14.605256 0.26646579,14.147149 V 9.5561973 c 0,0 17.39339721,-3.7863269 20.20157421,-4.7935758 2.80791,-1.0075159 3.782055,-1.0438227 6.171635,-0.1684532 2.389847,0.8753695 16.678206,3.4528909 19.040021,4.3181158 0,0 -0.0011,4.0997409 -0.0011,4.5255459 2.67e-4,0.453302 -0.544604,0.951187 -1.778236,1.594032 z"
           id="path4"
           fill="#a41e11" /><path
           d="m 43.900393,10.44011 c -2.423485,1.263265 -14.97819,6.425516 -17.651017,7.81906 -2.672827,1.393276 -4.157671,1.379661 -6.269076,0.370543 C 17.868895,17.620596 4.5084974,12.223418 2.1018319,11.073344 -0.30483362,9.9232705 -0.3552895,9.1311932 2.008929,8.2053679 4.3728805,7.2795424 17.659863,2.0668358 20.468307,1.0593199 23.276217,0.05180404 24.250363,0.01549716 26.639942,0.89113364 29.029789,1.7665032 41.509478,6.7336045 43.871027,7.5988294 c 2.362082,0.864958 2.45285,1.5782814 0.02937,2.8412806 z"
           id="path5"
           fill="#d82c20" /><polygon
           id="polygon5"
           fill="#ffffff"
           points="24.107805,8.5473466 22.684895,6.1820603 18.141196,5.7736079 21.531618,4.5509204 20.514491,2.6741751 23.688674,3.91555 26.681321,2.9357982 25.872426,4.8766144 28.923805,6.0192132 24.98878,6.4276656 " /><polygon
           id="polygon6"
           fill="#ffffff"
           points="23.872878,16.302603 16.528744,13.256562 27.052399,11.64144 " /><ellipse
           id="Oval"
           fill="#ffffff"
           cx="13.690934"
           cy="9.3775997"
           rx="5.6246295"
           ry="2.1802814" /><polygon
           id="polygon7"
           fill="#7a0c00"
           points="33.574289,6.5985215 39.802521,9.0599143 33.579628,11.518638 " /><polygon
           id="polygon8"
           fill="#ad2115"
           points="26.683991,9.324207 33.574289,6.5985215 33.579628,11.518638 32.904214,11.78293 " /></g></g><text
       xml:space="preserve"
       style="font-style:normal;font-variant:normal;font-weight:bold;font-stretch:normal;font-size:7.05556px;font-family:sans-serif;-inkscape-font-specification:'sans-serif Bold';writing-mode:lr-tb;direction:ltr;fill:#ffffff;stroke-width:0.264583"
       x="100.8397"
       y="150.4536"
       id="text3"><tspan
         id="tspan3"
         style="font-style:normal;font-variant:normal;font-weight:bold;font-stretch:normal;font-family:sans-serif;-inkscape-font-specification:'sans-serif Bold';stroke-width:0.264583"
         x="100.8397"
         y="150.4536">REDIS</tspan></text></g></svg>
